<svg width="46" height="46" viewBox="0 0 46 46" fill="none" xmlns="http://www.w3.org/2000/svg">
<path d="M44.775 40.7241L36.275 32.2491C39.0175 28.7552 40.5055 24.4407 40.5 19.9991C40.5 16.0434 39.327 12.1766 37.1294 8.88766C34.9318 5.59867 31.8082 3.03522 28.1537 1.52147C24.4992 0.00771958 20.4778 -0.388347 16.5982 0.383357C12.7186 1.15506 9.15492 3.05988 6.35787 5.85693C3.56082 8.65398 1.65601 12.2176 0.884303 16.0973C0.112599 19.9769 0.508666 23.9982 2.02242 27.6527C3.53617 31.3073 6.09962 34.4308 9.3886 36.6285C12.6776 38.8261 16.5444 39.9991 20.5 39.9991C24.9416 40.0046 29.2561 38.5165 32.75 35.7741L41.225 44.2741C41.4574 44.5084 41.7339 44.6944 42.0386 44.8213C42.3432 44.9482 42.67 45.0136 43 45.0136C43.33 45.0136 43.6568 44.9482 43.9615 44.8213C44.2661 44.6944 44.5426 44.5084 44.775 44.2741C45.0093 44.0417 45.1953 43.7652 45.3222 43.4605C45.4492 43.1559 45.5145 42.8291 45.5145 42.4991C45.5145 42.169 45.4492 41.8423 45.3222 41.5376C45.1953 41.233 45.0093 40.9565 44.775 40.7241ZM5.50001 19.9991C5.50001 17.0323 6.37974 14.1322 8.02796 11.6655C9.67619 9.19877 12.0189 7.27618 14.7598 6.14087C17.5006 5.00556 20.5166 4.70851 23.4264 5.28728C26.3361 5.86606 29.0088 7.29467 31.1066 9.39246C33.2044 11.4902 34.633 14.163 35.2118 17.0727C35.7906 19.9824 35.4935 22.9984 34.3582 25.7393C33.2229 28.4802 31.3003 30.8229 28.8336 32.4711C26.3668 34.1193 23.4667 34.9991 20.5 34.9991C16.5218 34.9991 12.7065 33.4187 9.89341 30.6057C7.08036 27.7926 5.50001 23.9773 5.50001 19.9991Z" fill="#FF7A00"/>
</svg>
