<svg width="42" height="38" viewBox="0 0 42 38" fill="none" xmlns="http://www.w3.org/2000/svg">
<path d="M25.7244 18.9367L40.6406 5.40619C41.2938 4.81228 41.6607 4.00678 41.6607 3.16687C41.6607 2.32697 41.2938 1.52146 40.6406 0.927555C39.9874 0.333652 39.1015 0 38.1777 0C37.2539 0 36.368 0.333652 35.7148 0.927555L20.8333 14.4896L5.95188 0.927555C5.29868 0.333652 4.41275 -6.25779e-09 3.48898 0C2.56522 6.25779e-09 1.67929 0.333652 1.02609 0.927555C0.372885 1.52146 0.00591998 2.32697 0.00591997 3.16687C0.00591997 4.00678 0.372885 4.81228 1.02609 5.40619L15.9422 18.9367L1.02609 32.4672C0.700954 32.7604 0.442891 33.1093 0.266781 33.4936C0.090671 33.8779 0 34.2902 0 34.7065C0 35.1229 0.090671 35.5351 0.266781 35.9195C0.442891 36.3038 0.700954 36.6526 1.02609 36.9458C1.34856 37.2415 1.73222 37.4761 2.15494 37.6362C2.57765 37.7964 3.03105 37.8788 3.48898 37.8788C3.94692 37.8788 4.40032 37.7964 4.82303 37.6362C5.24574 37.4761 5.62941 37.2415 5.95188 36.9458L20.8333 23.3838L35.7148 36.9458C36.0373 37.2415 36.4209 37.4761 36.8436 37.6362C37.2664 37.7964 37.7198 37.8788 38.1777 37.8788C38.6356 37.8788 39.089 37.7964 39.5117 37.6362C39.9344 37.4761 40.3181 37.2415 40.6406 36.9458C40.9657 36.6526 41.2238 36.3038 41.3999 35.9195C41.576 35.5351 41.6667 35.1229 41.6667 34.7065C41.6667 34.2902 41.576 33.8779 41.3999 33.4936C41.2238 33.1093 40.9657 32.7604 40.6406 32.4672L25.7244 18.9367Z" fill="#231F20"/>
</svg>
