<svg width="58" height="58" viewBox="0 0 58 58" fill="none" xmlns="http://www.w3.org/2000/svg">
<path d="M54 29V41.5C54 49 49 54 41.5 54H16.5C9 54 4 49 4 41.5V29C4 22.2 8.1 17.45 14.475 16.65C15.125 16.55 15.8 16.5 16.5 16.5H41.5C42.15 16.5 42.775 16.525 43.375 16.625C49.825 17.375 54 22.15 54 29Z" stroke="#292D32" stroke-width="7.21459" stroke-linecap="round" stroke-linejoin="round"/>
<path d="M43.3785 16.625C42.7785 16.525 42.1535 16.5 41.5035 16.5H16.5035C15.8035 16.5 15.1285 16.55 14.4785 16.65C14.8285 15.95 15.3285 15.3 15.9285 14.7L24.0535 6.55C27.4785 3.15 33.0285 3.15 36.4535 6.55L40.8285 10.975C42.4285 12.55 43.2785 14.55 43.3785 16.625Z" stroke="#292D32" stroke-width="7.21459" stroke-linecap="round" stroke-linejoin="round"/>
<path d="M54 30.25H46.5C43.75 30.25 41.5 32.5 41.5 35.25C41.5 38 43.75 40.25 46.5 40.25H54" stroke="#292D32" stroke-width="7.21459" stroke-linecap="round" stroke-linejoin="round"/>
</svg>
